<?xml version="1.0" encoding="UTF-8"?>
<svg width="148px" height="29px" viewBox="0 0 148 29" version="1.1" xmlns="http://www.w3.org/2000/svg" xmlns:xlink="http://www.w3.org/1999/xlink">
    <!-- Generator: Sketch 54.1 (76490) - https://sketchapp.com -->
    <title>lgo_BIVD_BY</title>
    <desc>Created with Sketch.</desc>
    <g id="Page-1" stroke="none" stroke-width="1" fill="none" fill-rule="evenodd">
        <g id="lgo_BIVD_BY">
            <path d="M5.8813,10.2715 C6.7063,10.2715 7.2563,9.7205 7.2563,8.9875 C7.2563,8.2535 6.7063,7.7035 5.8813,7.7035 L3.4973,7.7035 L3.4973,10.2715 L5.8813,10.2715 Z M3.4973,2.9345 L3.4973,5.1355 L5.4233,5.1355 C6.1743,5.1355 6.6153,4.6775 6.6153,4.0355 C6.6153,3.3935 6.1563,2.9345 5.4233,2.9345 L3.4973,2.9345 Z M0.0123,13.0225 L0.0123,0.1835 L5.7893,0.1835 C8.5413,0.1835 10.1913,1.8335 10.1913,3.5775 C10.1913,5.5025 8.5413,6.2365 8.5413,6.2365 C8.5413,6.2365 10.8333,6.9695 10.8333,9.2625 C10.8333,11.1885 8.9993,13.0225 6.1563,13.0225 L0.0123,13.0225 Z" id="Fill-1" fill="#10059E"></path>
            <path d="M18.1191,3.7598 L16.9271,7.5208 L19.3111,7.5208 L18.1191,3.7598 Z M16.0101,10.2718 L15.0931,13.0228 L11.3331,13.0228 L16.1931,0.1838 L20.0451,0.1838 L24.9051,13.0228 L21.1451,13.0228 L20.2281,10.2718 L16.0101,10.2718 Z" id="Fill-3" fill="#10059E"></path>
            <path d="M33.8057,7.7032 L33.8057,0.1832 L37.2907,0.1832 L37.2907,7.7032 C37.2907,10.9132 34.8147,13.3902 31.4217,13.3902 C28.0287,13.3902 25.5527,10.9132 25.5527,7.7032 L25.5527,0.1832 L29.0367,0.1832 L29.0367,7.7032 C29.0367,9.1712 30.1377,10.2712 31.4217,10.2712 C32.7057,10.2712 33.8057,9.1712 33.8057,7.7032" id="Fill-5" fill="#10059E"></path>
            <polygon id="Fill-7" fill="#10059E" points="54.047 13.0228 55.422 13.0228 55.422 0.1838 54.047 0.1838"></polygon>
            <polygon id="Fill-9" fill="#10059E" points="69.4185 0.1836 69.4185 13.0226 68.2265 13.0226 60.3395 2.6606 60.3395 13.0226 58.9635 13.0226 58.9635 0.1836 60.1565 0.1836 68.0435 10.5466 68.0435 0.1836"></polygon>
            <path d="M74.3208,1.4678 L74.3208,11.7388 L76.9808,11.7388 C80.0068,11.7388 82.2998,9.4468 82.2998,6.6038 C82.2998,3.7598 80.0068,1.4678 76.9808,1.4678 L74.3208,1.4678 Z M76.9808,0.1838 C80.7398,0.1838 83.6748,3.1178 83.6748,6.6038 C83.6748,10.0878 80.7398,13.0228 76.9808,13.0228 L72.9458,13.0228 L72.9458,0.1838 L76.9808,0.1838 Z" id="Fill-10" fill="#10059E"></path>
            <path d="M95.125,7.9786 L95.125,0.1836 L96.5,0.1836 L96.5,7.9786 C96.5,10.8216 94.116,13.2066 91.273,13.2066 C88.431,13.2066 86.046,10.8216 86.046,7.9786 L86.046,0.1836 L87.422,0.1836 L87.422,7.9786 C87.422,10.1796 89.164,11.9216 91.273,11.9216 C93.382,11.9216 95.125,10.1796 95.125,7.9786" id="Fill-11" fill="#10059E"></path>
            <path d="M99.3486,3.4854 C99.3486,1.6144 100.9256,0.0004 103.4746,0.0004 C105.9326,0.0004 107.2356,1.6514 107.2356,1.6514 L106.3186,2.5684 C106.3186,2.5684 105.3826,1.2844 103.4746,1.2844 C101.7146,1.2844 100.7236,2.3304 100.7236,3.4854 C100.7236,6.7864 107.6936,4.9524 107.6936,9.5384 C107.6936,11.6464 106.1346,13.2064 103.3836,13.2064 C100.4496,13.2064 99.0736,11.2804 99.0736,11.2804 L99.9166,10.3444 C99.9166,10.3444 100.9986,11.9224 103.3836,11.9224 C105.3096,11.9224 106.3186,10.9134 106.3186,9.5384 C106.3186,6.2364 99.3486,8.0704 99.3486,3.4854" id="Fill-12" fill="#10059E"></path>
            <polygon id="Fill-13" fill="#10059E" points="118.4453 0.1836 118.4453 1.4676 114.4103 1.4676 114.4103 13.0226 113.0343 13.0226 113.0343 1.4676 108.9993 1.4676 108.9993 0.1836"></polygon>
            <path d="M122.4839,1.4678 L122.4839,6.6038 L126.2439,6.6038 C127.8029,6.6038 128.8119,5.5948 128.8119,4.0348 C128.8119,2.4768 127.8029,1.4678 126.2439,1.4678 L122.4839,1.4678 Z M126.2439,0.1838 C128.5369,0.1838 130.1879,1.8338 130.1879,4.0348 C130.1879,6.9698 127.5279,7.7028 127.5279,7.7028 L130.5539,13.0228 L128.9949,13.0228 L126.1519,7.8868 L122.4839,7.8868 L122.4839,13.0228 L121.1089,13.0228 L121.1089,0.1838 L126.2439,0.1838 Z" id="Fill-14" fill="#10059E"></path>
            <polygon id="Fill-15" fill="#10059E" points="133.677 13.0228 135.052 13.0228 135.052 0.1838 133.677 0.1838"></polygon>
            <polygon id="Fill-16" fill="#10059E" points="148.0034 11.7383 148.0034 13.0223 139.0164 13.0223 139.0164 0.1833 147.8194 0.1833 147.8194 1.4673 140.3914 1.4673 140.3914 5.6853 146.3524 5.6853 146.3524 6.9693 140.3914 6.9693 140.3914 11.7383"></polygon>
            <path d="M3.1353,25.0957 C4.0703,25.0957 4.6763,24.4917 4.6763,23.6657 C4.6763,22.8407 4.0703,22.1257 3.1353,22.1257 L0.8253,22.1257 L0.8253,25.0957 L3.1353,25.0957 Z M0.8253,18.9357 L0.8253,21.3997 L2.9703,21.3997 C3.7953,21.3997 4.2903,20.9147 4.2903,20.1457 C4.2903,19.4307 3.7953,18.9357 2.9703,18.9357 L0.8253,18.9357 Z M5.5003,23.6657 C5.5003,24.9307 4.5653,25.8667 3.1353,25.8667 L0.0003,25.8667 L0.0003,18.1647 L2.9703,18.1647 C4.2353,18.1647 5.1153,19.0447 5.1153,20.1457 C5.1153,21.3557 4.2353,21.7407 4.2353,21.7407 C4.2353,21.7407 5.5003,22.2357 5.5003,23.6657 L5.5003,23.6657 Z" id="Fill-17" fill="#10059E"></path>
            <path d="M10.4297,23.501 L10.4297,23.171 L8.6147,23.501 C7.9537,23.622 7.6237,23.941 7.6237,24.436 C7.6237,24.876 8.0097,25.261 8.7247,25.261 C9.7147,25.261 10.4297,24.546 10.4297,23.501 L10.4297,23.501 Z M10.4297,22.511 C10.4297,21.74 9.8797,21.19 9.1097,21.19 C8.1747,21.19 7.6237,21.961 7.6237,21.961 L7.1297,21.466 C7.1297,21.466 7.8447,20.476 9.1097,20.476 C10.3197,20.476 11.1997,21.355 11.1997,22.511 L11.1997,25.866 L10.4297,25.866 L10.4297,25.151 C10.4297,25.151 9.8797,25.977 8.7247,25.977 C7.6237,25.977 6.8537,25.206 6.8537,24.436 C6.8537,23.556 7.4047,23.006 8.3947,22.841 L10.4297,22.511 Z" id="Fill-18" fill="#10059E"></path>
            <path d="M14.2979,25.8663 L12.1519,20.5863 L12.9779,20.5863 L14.6829,24.8763 L16.3879,20.5863 L17.2139,20.5863 L14.7929,26.6373 C14.3529,27.7363 13.9129,28.1773 13.1429,28.1773 C12.7579,28.1773 12.4829,28.0663 12.4829,28.0663 L12.4829,27.3513 C12.4829,27.3513 12.7579,27.4623 13.0329,27.4623 C13.5279,27.4623 13.8249,27.1863 14.0229,26.6373 L14.2979,25.8663 Z" id="Fill-19" fill="#10059E"></path>
            <path d="M18.6318,22.8409 L22.2078,22.8409 C22.0978,21.9049 21.3818,21.1909 20.4468,21.1909 C19.5118,21.1909 18.7418,21.9609 18.6318,22.8409 L18.6318,22.8409 Z M18.6318,23.5009 C18.6868,24.4359 19.5118,25.2609 20.5028,25.2609 C21.6128,25.2609 22.2078,24.3809 22.2078,24.3809 L22.7028,24.8759 C22.7028,24.8759 21.9328,25.9769 20.5028,25.9769 C19.0718,25.9769 17.8618,24.7659 17.8618,23.2259 C17.8618,21.6859 19.0718,20.4759 20.4468,20.4759 C21.8778,20.4759 22.9778,21.5749 22.9778,23.1159 C22.9778,23.3359 22.9228,23.5119 22.9228,23.5119 L18.6318,23.5009 Z" id="Fill-20" fill="#10059E"></path>
            <path d="M27.3887,21.2452 L27.0587,21.2452 C26.1787,21.2452 25.4087,21.9052 25.4087,22.9512 L25.4087,25.8662 L24.6387,25.8662 L24.6387,20.5862 L25.4087,20.5862 L25.4087,21.3012 C25.4087,21.3012 25.9587,20.4752 27.1687,20.4752 L27.3887,20.4752 L27.3887,21.2452 Z" id="Fill-21" fill="#10059E"></path>
            <path d="M29.4893,21.3555 C29.4893,21.3555 30.0393,20.4755 31.1943,20.4755 C32.4593,20.4755 33.3403,21.3555 33.3403,22.7305 L33.3403,25.8665 L32.5703,25.8665 L32.5703,22.7305 C32.5703,21.7955 31.9653,21.1905 31.1393,21.1905 C30.2043,21.1905 29.4893,21.9055 29.4893,22.9515 L29.4893,25.8665 L28.7193,25.8665 L28.7193,20.5855 L29.4893,20.5855 L29.4893,21.3555 Z" id="Fill-22" fill="#10059E"></path>
            <polygon id="Fill-23" fill="#10069F" points="39.6401 0.2686 45.3411 8.9016 42.4941 13.0186 46.5401 13.0186 49.3881 8.9016 43.6871 0.2686"></polygon>
        </g>
    </g>
</svg>